<svg width="494" height="223" viewBox="0 0 494 223" fill="none" xmlns="http://www.w3.org/2000/svg">
<g filter="url(#filter0_d_211_129)">
<path d="M4.03396 172.001L4.04915 149.601L23.8491 149.615L53.0987 76.6361L37.4987 76.6248L37.5139 54.2248L85.5139 54.2595L122.449 149.686L140.049 149.699L140.034 172.099L87.0339 172.061L87.0491 149.661L96.8491 149.668L90.8607 132.663L52.2607 132.635L46.2491 149.631L57.2491 149.639L57.2339 172.039L4.03396 172.001ZM58.2718 116.24L85.2718 116.259L71.8977 78.0497L58.2718 116.24ZM136.72 172.097L136.735 149.697L152.735 149.708L152.785 76.7081L136.785 76.6965L136.8 54.2965L189.6 54.3347C202.266 54.3438 212.065 56.0175 218.996 59.3559C225.928 62.5609 230.724 67.1644 233.387 73.1663C236.05 79.1682 237.378 86.1692 237.373 94.1692C237.364 107.502 233.824 117.433 226.753 123.962C219.815 130.49 209.413 133.749 195.546 133.739L178.546 133.727L178.535 149.727L188.135 149.734L188.12 172.134L136.72 172.097ZM178.761 111.527L188.361 111.534C193.961 111.538 198.361 111.008 201.562 109.943C204.896 108.879 207.231 107.081 208.566 104.548C210.034 102.016 210.77 98.55 210.773 94.15C210.776 89.6166 209.912 86.0827 208.18 83.5481C206.448 81.0135 203.916 79.2783 200.583 78.3426C197.251 77.2735 193.185 76.7372 188.385 76.7338L178.785 76.7269L178.761 111.527ZM213.12 172.152L190.748 130.936L213.951 126.752L228.135 149.763L248.935 149.778L248.92 172.178L213.12 172.152ZM250.562 54.3787L341.962 54.4447L354.337 91.4536L333.132 98.6383L325.747 76.833L292.547 76.809L292.53 101.409L325.13 101.433L325.115 123.633L292.515 123.609L292.498 149.809L331.098 149.837L338.111 130.242L359.106 137.657L347.082 172.248L250.282 172.179L250.298 149.779L266.498 149.79L266.747 76.7904L250.547 76.7787L250.562 54.3787ZM353.12 172.253L353.135 149.853L372.935 149.867L402.185 76.8882L386.585 76.8769L386.6 54.4769L434.6 54.5116L471.535 149.938L489.135 149.951L489.12 172.351L436.12 172.313L436.135 149.913L445.935 149.92L439.947 132.915L401.347 132.888L395.335 149.883L406.335 149.891L406.32 172.291L353.12 172.253ZM407.358 116.492L434.358 116.511L420.984 78.3018L407.358 116.492Z" fill="white"/>
</g>
<defs>
<filter id="filter0_d_211_129" x="0.0339508" y="54.2007" width="493.166" height="126.15" filterUnits="userSpaceOnUse" color-interpolation-filters="sRGB">
<feFlood flood-opacity="0" result="BackgroundImageFix"/>
<feColorMatrix in="SourceAlpha" type="matrix" values="0 0 0 0 0 0 0 0 0 0 0 0 0 0 0 0 0 0 127 0" result="hardAlpha"/>
<feOffset dy="4"/>
<feGaussianBlur stdDeviation="2"/>
<feComposite in2="hardAlpha" operator="out"/>
<feColorMatrix type="matrix" values="0 0 0 0 0 0 0 0 0 0 0 0 0 0 0 0 0 0 0.25 0"/>
<feBlend mode="normal" in2="BackgroundImageFix" result="effect1_dropShadow_211_129"/>
<feBlend mode="normal" in="SourceGraphic" in2="effect1_dropShadow_211_129" result="shape"/>
</filter>
</defs>
</svg>
