<svg width="61" height="62" viewBox="0 0 61 62" fill="none" xmlns="http://www.w3.org/2000/svg">
<g filter="url(#filter0_d_310_133)">
<rect width="52" height="52" rx="26" transform="matrix(1 0.000714328 -0.000685803 1 4.03564 0.991455)" fill="#9B8AF0"/>
<rect width="52" height="52" rx="26" transform="matrix(1 0.000714328 -0.000685803 1 4.03564 0.991455)" fill="#1DE1CE" fill-opacity="0.4"/>
</g>
<path d="M31.5385 14L50 28L31.5385 42V14ZM47.4359 28H10Z" fill="white"/>
<path d="M31.5385 14L33.0491 12.008C32.2926 11.4344 31.2766 11.3387 30.4264 11.761C29.5761 12.1833 29.0385 13.0507 29.0385 14H31.5385ZM50 28L51.5106 29.992C52.1339 29.5194 52.5 28.7822 52.5 28C52.5 27.2178 52.1339 26.4806 51.5106 26.008L50 28ZM31.5385 42H29.0385C29.0385 42.9493 29.5761 43.8167 30.4264 44.239C31.2766 44.6613 32.2926 44.5656 33.0491 43.992L31.5385 42ZM47.4359 30.5C48.8166 30.5 49.9359 29.3807 49.9359 28C49.9359 26.6193 48.8166 25.5 47.4359 25.5V30.5ZM10 25.5H7.5V30.5H10V25.5ZM30.0279 15.992L48.4894 29.992L51.5106 26.008L33.0491 12.008L30.0279 15.992ZM48.4894 26.008L30.0279 40.008L33.0491 43.992L51.5106 29.992L48.4894 26.008ZM34.0385 42V14H29.0385V42H34.0385ZM47.4359 25.5H10V30.5H47.4359V25.5Z" fill="white"/>
<defs>
<filter id="filter0_d_310_133" x="0.0175781" y="1.01001" width="60" height="60" filterUnits="userSpaceOnUse" color-interpolation-filters="sRGB">
<feFlood flood-opacity="0" result="BackgroundImageFix"/>
<feColorMatrix in="SourceAlpha" type="matrix" values="0 0 0 0 0 0 0 0 0 0 0 0 0 0 0 0 0 0 127 0" result="hardAlpha"/>
<feOffset dy="4"/>
<feGaussianBlur stdDeviation="2"/>
<feComposite in2="hardAlpha" operator="out"/>
<feColorMatrix type="matrix" values="0 0 0 0 0 0 0 0 0 0 0 0 0 0 0 0 0 0 0.25 0"/>
<feBlend mode="normal" in2="BackgroundImageFix" result="effect1_dropShadow_310_133"/>
<feBlend mode="normal" in="SourceGraphic" in2="effect1_dropShadow_310_133" result="shape"/>
</filter>
</defs>
</svg>
